<?xml version="1.0" encoding="UTF-8" standalone="no"?>
<!-- Generator: Adobe Illustrator 19.0.0, SVG Export Plug-In . SVG Version: 6.00 Build 0)  -->

<svg
   xmlns:dc="http://purl.org/dc/elements/1.1/"
   xmlns:cc="http://creativecommons.org/ns#"
   xmlns:rdf="http://www.w3.org/1999/02/22-rdf-syntax-ns#"
   xmlns:svg="http://www.w3.org/2000/svg"
   xmlns="http://www.w3.org/2000/svg"
   xmlns:sodipodi="http://sodipodi.sourceforge.net/DTD/sodipodi-0.dtd"
   xmlns:inkscape="http://www.inkscape.org/namespaces/inkscape"
   version="1.1"
   id="Layer_1"
   x="0px"
   y="0px"
   viewBox="0 0 516.47365 516.47365"
   xml:space="preserve"
   inkscape:version="0.91 r13725"
   sodipodi:docname="icon.svg"
   width="516.47363"
   height="516.47363"
   inkscape:export-filename="/Users/mtopol/Desktop/weather-radar/icon-512.png"
   inkscape:export-xdpi="89.220001"
   inkscape:export-ydpi="89.220001"><metadata
     id="metadata75"><rdf:RDF><cc:Work
         rdf:about=""><dc:format>image/svg+xml</dc:format><dc:type
           rdf:resource="http://purl.org/dc/dcmitype/StillImage" /><dc:title /></cc:Work></rdf:RDF></metadata><defs
     id="defs73" /><sodipodi:namedview
     pagecolor="#ffffff"
     bordercolor="#666666"
     borderopacity="1"
     objecttolerance="10"
     gridtolerance="10"
     guidetolerance="10"
     inkscape:pageopacity="0"
     inkscape:pageshadow="2"
     inkscape:window-width="1440"
     inkscape:window-height="855"
     id="namedview71"
     showgrid="false"
     inkscape:zoom="0.34630305"
     inkscape:cx="-349.26972"
     inkscape:cy="186.25093"
     inkscape:window-x="32"
     inkscape:window-y="0"
     inkscape:window-maximized="0"
     inkscape:current-layer="Layer_1"
     fit-margin-top="0"
     fit-margin-left="0"
     fit-margin-right="0"
     fit-margin-bottom="0" /><g
     id="g3"
     transform="matrix(1.1549825,0,0,1.1549825,-20.045785,-20.045784)"><defs
       id="defs5" /><mask
       maskUnits="userSpaceOnUse"
       x="254.795"
       y="240.941"
       width="177.694"
       height="136.132"
       id="SVGID_4_" /><linearGradient
       id="SVGID_2_"
       gradientUnits="userSpaceOnUse"
       x1="-1.7613"
       y1="560.40222"
       x2="14.2687"
       y2="576.43219"
       gradientTransform="matrix(6.0235,0,0,-6.0235,321.8014,3688.5986)"><stop
         offset="0"
         style="stop-color:#FFFFFF"
         id="stop12" /><stop
         offset="1"
         style="stop-color:#000000"
         id="stop14" /></linearGradient><path
       style="fill:url(#SVGID_2_)"
       d="m 432.489,240.941 -177.694,0 3.012,18.673 117.459,117.459 c 0,0 57.223,-47.586 57.223,-136.132 z"
       id="path16"
       mask="url(#SVGID_4_)"
       inkscape:connector-curvature="0" /></g><circle
     style="fill:#2f4859"
     cx="258.23682"
     cy="258.23682"
     id="circle18"
     r="258.23682" /><circle
     style="fill:#ebf0f3"
     cx="258.23682"
     cy="258.23682"
     id="circle20"
     r="231.67097" /><circle
     style="fill:#31978c"
     cx="258.23682"
     cy="258.23682"
     id="circle22"
     r="221.23459" /><path
     style="fill:#3ea69b"
     d="m 56.482186,284.67437 c 0,-122.44429 98.790264,-221.23457 221.234574,-221.23457 66.78799,0 125.92307,29.219897 166.96999,75.83151 C 405.0316,78.049173 336.85184,37.002255 258.23681,37.002255 c -122.44429,0 -221.234556,98.790255 -221.234556,221.234545 0,55.6563 20.871688,106.44319 54.265692,145.40304 -21.566988,-34.78575 -34.78576,-75.13621 -34.78576,-118.96547 z"
     id="path24"
     inkscape:connector-curvature="0" /><path
     style="fill:#44c4a1"
     d="m 479.47136,263.10739 0,-10.43528 -54.26567,0 C 423.81393,210.23345 407.11751,171.97002 379.98465,143.4466 l 38.95988,-38.95989 -6.9576,-6.957613 -38.95988,38.959873 C 344.50361,109.35612 306.23905,92.659697 263.80152,91.267954 l 0,-54.265699 -10.43527,0 0,54.265699 C 210.9276,92.659697 172.66417,109.35612 144.14072,136.48897 l -38.95986,-38.959873 -6.95762,6.957613 38.95988,38.95989 c -27.13284,28.52342 -43.829278,66.78801 -45.221028,109.22551 l -54.264538,0 0,10.43528 54.265693,0 c 1.39175,42.43866 18.088173,80.70206 45.221013,109.22551 l -38.959851,38.95987 6.957621,6.9576 38.95984,-38.95984 c 28.52345,27.13282 66.78801,43.82924 109.22554,45.22101 l 0,54.26568 10.43526,0 0,-54.26568 c 42.43868,-1.39177 80.70208,-18.08819 109.22553,-45.22101 l 38.95987,38.95984 6.95762,-6.9576 -38.95988,-38.95987 c 27.13284,-28.52345 43.82928,-66.78802 45.22102,-109.22551 l 54.26453,0 z m -64.69977,-9.74 -52.17752,0 c -1.39173,-25.04577 -11.13171,-47.30804 -27.13282,-64.70094 l 36.8728,-36.8728 c 25.04464,26.43754 41.04576,61.91858 42.43754,101.57374 z M 274.93441,233.88747 c -3.47882,-2.78235 -7.65291,-4.17412 -11.82705,-4.86941 l 0,-64.70093 c 22.26231,1.39174 42.43868,9.73996 57.74335,23.65402 l -45.9163,45.91632 z m -21.567,-4.87057 c -4.1741,0.69531 -8.34821,2.08709 -11.82702,4.86943 l -45.91632,-45.91631 c 15.30581,-13.91409 35.48104,-22.95876 57.74334,-23.65406 l 0,64.70094 z m -19.47992,12.52349 c -2.78238,3.4788 -4.17413,7.65291 -4.86941,11.827 l -64.70096,0 c 1.39175,-22.26227 9.73995,-42.43866 23.65404,-57.74332 l 45.91633,45.91632 z m -4.87057,21.567 c 0.69529,4.1741 2.08706,8.3482 4.8694,11.827 L 187.97,320.85072 c -13.91407,-15.30584 -22.95872,-35.48105 -23.65404,-57.74333 l 64.70096,0 z m 12.52347,19.47991 c 3.47881,2.78237 7.65292,4.17411 11.82702,4.86942 l 0,64.70096 c -22.2623,-1.39176 -42.43869,-9.73998 -57.74334,-23.65405 l 45.91632,-45.91633 z m 21.56697,4.86942 c 4.17414,-0.69531 8.34823,-2.08705 11.82705,-4.86942 l 45.9163,45.91633 c -15.30582,13.91407 -35.48104,22.95873 -57.74335,23.65405 l 0,-64.70096 z m 19.47995,-12.52233 c 2.08705,-3.4788 4.1741,-7.6529 4.8694,-11.827 l 64.70097,0 c -1.39175,22.26228 -9.73998,42.43866 -23.65405,57.74333 l -45.91632,-45.91633 z m 4.8694,-21.567 c -0.6953,-4.17409 -2.08704,-8.3482 -4.8694,-11.827 l 45.91632,-45.91632 c 13.91407,15.30583 22.95873,35.48105 23.65405,57.74332 l -64.70097,0 z m 77.91972,-109.22667 -36.8728,36.87282 c -17.39288,-16.00112 -40.35046,-25.74109 -64.70096,-27.13285 l 0,-52.17747 c 38.95986,1.3906 74.44094,17.39287 101.57376,42.4375 z m -112.00902,-42.4375 0,52.17747 c -25.0458,1.39176 -47.30808,11.13173 -64.70096,27.13285 l -36.87279,-36.87282 c 26.43752,-25.04463 61.91857,-41.0469 101.57375,-42.4375 z m -109.22669,49.39511 36.87285,36.87282 c -16.00114,17.39288 -25.74112,40.35047 -27.13289,64.70096 l -52.17746,0 c 1.39059,-38.95988 17.39286,-74.44092 42.4375,-101.57378 z m -42.4375,112.00906 52.17746,0 c 1.39177,25.04577 11.13175,47.30805 27.13289,64.70092 l -36.87285,36.87283 c -25.04464,-26.43755 -41.04691,-61.91861 -42.4375,-101.57375 z m 49.39513,109.22551 36.87281,-36.87282 c 17.39289,16.00113 39.65518,25.74111 64.70095,27.13284 l 0,52.17748 c -38.95988,-1.39058 -74.44093,-17.39172 -101.57376,-42.4375 z m 112.00901,42.43867 0,-52.1775 c 25.04581,-1.39173 47.30809,-11.13171 64.70096,-27.13282 l 36.87283,36.87281 c -26.43754,25.04462 -61.91862,41.04576 -101.57379,42.43751 z m 109.22553,-49.39512 -36.87281,-36.87282 c 16.00114,-17.39286 25.7411,-40.35047 27.13285,-64.70095 l 52.1775,0 c -1.39062,38.95985 -17.39174,74.44091 -42.43754,101.57377 z"
     id="path26"
     inkscape:connector-curvature="0" /><linearGradient
     id="SVGID_3_"
     gradientUnits="userSpaceOnUse"
     x1="-1.7613"
     y1="560.40222"
     x2="14.2687"
     y2="576.43219"
     gradientTransform="matrix(6.9570361,0,0,-6.9570361,351.62916,4240.2204)"><stop
       offset="0"
       style="stop-color:#44C4A1"
       id="stop35" /><stop
       offset="1"
       style="stop-color:#44C4A1"
       id="stop37" /></linearGradient><path
     style="fill:url(#SVGID_3_)"
     d="m 479.47136,258.2368 -205.23342,0 3.47882,21.56699 135.66305,135.66307 c 0,0 66.09155,-54.96097 66.09155,-157.23006 z"
     id="path39"
     inkscape:connector-curvature="0" /><circle
     style="fill:#e56353"
     cx="324.19946"
     cy="389.63437"
     id="circle30"
     r="25.045795" /><circle
     style="fill:#fcd462"
     cx="257.92584"
     cy="258.32501"
     id="circle28"
     r="25.045795" /><g
     id="g41"
     transform="matrix(1.0597163,0,0,1.0597163,-18.392356,24.207778)" /><g
     id="g43"
     transform="matrix(1.0597163,0,0,1.0597163,-18.392356,24.207778)" /><g
     id="g45"
     transform="matrix(1.0597163,0,0,1.0597163,-18.392356,24.207778)" /><g
     id="g47"
     transform="matrix(1.0597163,0,0,1.0597163,-18.392356,24.207778)" /><g
     id="g49"
     transform="matrix(1.0597163,0,0,1.0597163,-18.392356,24.207778)" /><g
     id="g51"
     transform="matrix(1.0597163,0,0,1.0597163,-18.392356,24.207778)" /><g
     id="g53"
     transform="matrix(1.0597163,0,0,1.0597163,-18.392356,24.207778)" /><g
     id="g55"
     transform="matrix(1.0597163,0,0,1.0597163,-18.392356,24.207778)" /><g
     id="g57"
     transform="matrix(1.0597163,0,0,1.0597163,-18.392356,24.207778)" /><g
     id="g59"
     transform="matrix(1.0597163,0,0,1.0597163,-18.392356,24.207778)" /><g
     id="g61"
     transform="matrix(1.0597163,0,0,1.0597163,-18.392356,24.207778)" /><g
     id="g63"
     transform="matrix(1.0597163,0,0,1.0597163,-18.392356,24.207778)" /><g
     id="g65"
     transform="matrix(1.0597163,0,0,1.0597163,-18.392356,24.207778)" /><g
     id="g67"
     transform="matrix(1.0597163,0,0,1.0597163,-18.392356,24.207778)" /><g
     id="g69"
     transform="matrix(1.0597163,0,0,1.0597163,-18.392356,24.207778)" /><g
     transform="matrix(0.23844291,0,0,0.23844291,137.33795,224.92127)"
     id="g4596"><ellipse
       ry="72.96299"
       rx="68.793671"
       cy="245.98949"
       cx="-229.31224"
       id="path4496"
       style="opacity:1;fill:#ffffff;fill-opacity:1;stroke:#ffffff;stroke-width:28.82689476;stroke-miterlimit:4;stroke-dasharray:none;stroke-opacity:1" /><ellipse
       ry="114.65613"
       rx="119.86777"
       cy="104.23285"
       cx="-76.089973"
       id="path4498"
       style="opacity:1;fill:#ffffff;fill-opacity:1;stroke:#ffffff;stroke-width:28.82689476;stroke-miterlimit:4;stroke-dasharray:none;stroke-opacity:1" /><ellipse
       ry="96.936546"
       rx="111.52913"
       cy="222.01595"
       cx="124.03709"
       id="path4500"
       style="opacity:1;fill:#ffffff;fill-opacity:1;stroke:#ffffff;stroke-width:28.82689476;stroke-miterlimit:4;stroke-dasharray:none;stroke-opacity:1" /><rect
       y="195.95772"
       x="-214.71965"
       height="125.0794"
       width="318.95245"
       id="rect4502"
       style="opacity:1;fill:#ffffff;fill-opacity:1;stroke:#ffffff;stroke-width:28.82689476;stroke-miterlimit:4;stroke-dasharray:none;stroke-opacity:1" /></g><g
     id="g4177"
     transform="matrix(0.23844291,0,0,0.23844291,389.67896,131.76737)"><ellipse
       style="opacity:1;fill:#ffffff;fill-opacity:1;stroke:#ffffff;stroke-width:28.82689476;stroke-miterlimit:4;stroke-dasharray:none;stroke-opacity:1"
       id="ellipse4179"
       cx="-229.31224"
       cy="245.98949"
       rx="68.793671"
       ry="72.96299" /><ellipse
       style="opacity:1;fill:#ffffff;fill-opacity:1;stroke:#ffffff;stroke-width:28.82689476;stroke-miterlimit:4;stroke-dasharray:none;stroke-opacity:1"
       id="ellipse4181"
       cx="-76.089973"
       cy="104.23285"
       rx="119.86777"
       ry="114.65613" /><ellipse
       style="opacity:1;fill:#ffffff;fill-opacity:1;stroke:#ffffff;stroke-width:28.82689476;stroke-miterlimit:4;stroke-dasharray:none;stroke-opacity:1"
       id="ellipse4183"
       cx="124.03709"
       cy="222.01595"
       rx="111.52913"
       ry="96.936546" /><rect
       style="opacity:1;fill:#ffffff;fill-opacity:1;stroke:#ffffff;stroke-width:28.82689476;stroke-miterlimit:4;stroke-dasharray:none;stroke-opacity:1"
       id="rect4185"
       width="318.95245"
       height="125.0794"
       x="-214.71965"
       y="195.95772" /></g></svg>