<?xml version="1.0" encoding="UTF-8" standalone="no"?>
<!-- Generator: Adobe Illustrator 19.0.0, SVG Export Plug-In . SVG Version: 6.00 Build 0)  -->

<svg
   xmlns:dc="http://purl.org/dc/elements/1.1/"
   xmlns:cc="http://creativecommons.org/ns#"
   xmlns:rdf="http://www.w3.org/1999/02/22-rdf-syntax-ns#"
   xmlns:svg="http://www.w3.org/2000/svg"
   xmlns="http://www.w3.org/2000/svg"
   xmlns:sodipodi="http://sodipodi.sourceforge.net/DTD/sodipodi-0.dtd"
   xmlns:inkscape="http://www.inkscape.org/namespaces/inkscape"
   version="1.1"
   id="Layer_1"
   x="0px"
   y="0px"
   viewBox="0 0 481.882 481.882"
   xml:space="preserve"
   inkscape:version="0.91 r13725"
   sodipodi:docname="radar-marko.svg"
   width="481.88199"
   height="481.88199"
   inkscape:export-filename="/Users/mtopol/Desktop/weather-radar/newicon-512.png"
   inkscape:export-xdpi="95.629997"
   inkscape:export-ydpi="95.629997"><metadata
     id="metadata75"><rdf:RDF><cc:Work
         rdf:about=""><dc:format>image/svg+xml</dc:format><dc:type
           rdf:resource="http://purl.org/dc/dcmitype/StillImage" /><dc:title></dc:title></cc:Work></rdf:RDF></metadata><defs
     id="defs73" /><sodipodi:namedview
     pagecolor="#ffffff"
     bordercolor="#666666"
     borderopacity="1"
     objecttolerance="10"
     gridtolerance="10"
     guidetolerance="10"
     inkscape:pageopacity="0"
     inkscape:pageshadow="2"
     inkscape:window-width="1171"
     inkscape:window-height="843"
     id="namedview71"
     showgrid="false"
     inkscape:zoom="0.97949293"
     inkscape:cx="202.65588"
     inkscape:cy="240.94101"
     inkscape:window-x="135"
     inkscape:window-y="8"
     inkscape:window-maximized="0"
     inkscape:current-layer="Layer_1"
     fit-margin-top="0"
     fit-margin-left="0"
     fit-margin-right="0"
     fit-margin-bottom="0" /><g
     id="g3"
     transform="translate(0,-1.5733398e-5)"><defs
       id="defs5"><filter
         id="Adobe_OpacityMaskFilter"
         filterUnits="userSpaceOnUse"
         x="254.795"
         y="240.94099"
         width="177.694"
         height="136.132"><feColorMatrix
           type="matrix"
           values="1 0 0 0 0  0 1 0 0 0  0 0 1 0 0  0 0 0 1 0"
           id="feColorMatrix8" /></filter></defs><mask
       maskUnits="userSpaceOnUse"
       x="254.795"
       y="240.941"
       width="177.694"
       height="136.132"
       id="SVGID_4_" /><linearGradient
       id="SVGID_2_"
       gradientUnits="userSpaceOnUse"
       x1="-1.7613"
       y1="560.40222"
       x2="14.2687"
       y2="576.43219"
       gradientTransform="matrix(6.0235,0,0,-6.0235,321.8014,3688.5986)"><stop
         offset="0"
         style="stop-color:#FFFFFF"
         id="stop12" /><stop
         offset="1"
         style="stop-color:#000000"
         id="stop14" /></linearGradient><path
       style="fill:url(#SVGID_2_)"
       d="m 432.489,240.941 -177.694,0 3.012,18.673 117.459,117.459 c 0,0 57.223,-47.586 57.223,-136.132 z"
       id="path16"
       mask="url(#SVGID_4_)"
       inkscape:connector-curvature="0" /></g><circle
     style="fill:#2f4859"
     cx="240.94099"
     cy="240.94099"
     id="circle18"
     r="240.94099" /><circle
     style="fill:#ebf0f3"
     cx="240.94099"
     cy="240.94099"
     id="circle20"
     r="200.584" /><circle
     style="fill:#31978c"
     cx="240.94099"
     cy="240.94099"
     id="circle22"
     r="191.548" /><path
     style="fill:#3ea69b"
     d="m 66.259,263.83098 c 0,-106.014 85.534,-191.547997 191.548,-191.547997 57.826,0 109.026,25.299 144.565,65.655997 -34.334,-53.006997 -93.365,-88.545996 -161.431,-88.545996 -106.014,0 -191.548,85.533996 -191.548,191.547996 0,48.188 18.071,92.16 46.984,125.892 -18.673,-30.118 -30.118,-65.054 -30.118,-103.002 z"
     id="path24"
     inkscape:connector-curvature="0" /><path
     style="fill:#44c4a1"
     d="m 432.489,245.15798 0,-9.035 -46.984,0 c -1.205,-36.744 -15.661,-69.873 -39.153,-94.569 l 33.732,-33.732 -6.024,-6.024 -33.732,33.732 c -24.696,-23.492 -57.826,-37.947997 -94.569,-39.152997 l 0,-46.983999 -9.035,0 0,46.983999 c -36.744,1.205 -69.873,15.660997 -94.569,39.152997 l -33.732,-33.732 -6.024,6.024 33.732,33.732 c -23.492,24.696 -37.948,57.826 -39.153,94.569 l -46.983,0 0,9.035 46.984,0 c 1.205,36.744 15.661,69.873 39.153,94.569 l -33.732,33.732 6.024,6.024 33.732,-33.732 c 24.696,23.492 57.826,37.948 94.569,39.153 l 0,46.984 9.035,0 0,-46.984 c 36.744,-1.205 69.873,-15.661 94.569,-39.153 l 33.732,33.732 6.024,-6.024 -33.732,-33.732 c 23.492,-24.696 37.948,-57.826 39.153,-94.569 l 46.983,0 z m -56.018,-8.433 -45.176,0 c -1.205,-21.685 -9.638,-40.96 -23.492,-56.019 l 31.925,-31.925 c 21.684,22.89 35.538,53.61 36.743,87.944 z m -121.073,-16.866 c -3.012,-2.409 -6.626,-3.614 -10.24,-4.216 l 0,-56.019 c 19.275,1.205 36.744,8.433 49.995,20.48 l -39.755,39.755 z m -18.673,-4.217 c -3.614,0.602 -7.228,1.807 -10.24,4.216 l -39.755,-39.755 c 13.252,-12.047 30.72,-19.878 49.995,-20.48 l 0,56.019 z m -16.866,10.843 c -2.409,3.012 -3.614,6.626 -4.216,10.24 l -56.019,0 c 1.205,-19.275 8.433,-36.744 20.48,-49.995 l 39.755,39.755 z m -4.217,18.673 c 0.602,3.614 1.807,7.228 4.216,10.24 l -39.755,39.755 c -12.047,-13.252 -19.878,-30.72 -20.48,-49.995 l 56.019,0 z m 10.843,16.866 c 3.012,2.409 6.626,3.614 10.24,4.216 l 0,56.019 c -19.275,-1.205 -36.744,-8.433 -49.995,-20.48 l 39.755,-39.755 z m 18.673,4.216 c 3.614,-0.602 7.228,-1.807 10.24,-4.216 l 39.755,39.755 c -13.252,12.047 -30.72,19.878 -49.995,20.48 l 0,-56.019 z m 16.866,-10.842 c 1.807,-3.012 3.614,-6.626 4.216,-10.24 l 56.019,0 c -1.205,19.275 -8.433,36.744 -20.48,49.995 l -39.755,-39.755 z m 4.216,-18.673 c -0.602,-3.614 -1.807,-7.228 -4.216,-10.24 l 39.755,-39.755 c 12.047,13.252 19.878,30.72 20.48,49.995 l -56.019,0 z m 67.464,-94.57 -31.925,31.925 c -15.059,-13.854 -34.936,-22.287 -56.019,-23.492 l 0,-45.176 c 33.732,1.204 64.452,15.059 87.944,36.743 z m -96.979,-36.743 0,45.176 c -21.685,1.205 -40.96,9.638 -56.019,23.492 l -31.925,-31.925 c 22.89,-21.684 53.61,-35.539 87.944,-36.743 z m -94.57,42.767 31.925,31.925 c -13.854,15.059 -22.287,34.936 -23.492,56.019 l -45.176,0 c 1.204,-33.732 15.059,-64.452 36.743,-87.944 z m -36.743,96.979 45.176,0 c 1.205,21.685 9.638,40.96 23.492,56.019 l -31.925,31.925 c -21.684,-22.89 -35.539,-53.61 -36.743,-87.944 z m 42.767,94.569 31.925,-31.925 c 15.059,13.854 34.334,22.287 56.019,23.492 l 0,45.176 c -33.732,-1.204 -64.452,-15.058 -87.944,-36.743 z m 96.979,36.744 0,-45.176 c 21.685,-1.205 40.96,-9.638 56.019,-23.492 l 31.925,31.925 c -22.89,21.684 -53.61,35.538 -87.944,36.743 z m 94.569,-42.767 -31.925,-31.925 c 13.854,-15.059 22.287,-34.936 23.492,-56.019 l 45.176,0 c -1.204,33.732 -15.058,64.452 -36.743,87.944 z"
     id="path26"
     inkscape:connector-curvature="0" /><linearGradient
     id="SVGID_3_"
     gradientUnits="userSpaceOnUse"
     x1="-1.7613"
     y1="560.40222"
     x2="14.2687"
     y2="576.43219"
     gradientTransform="matrix(6.0235,0,0,-6.0235,321.8014,3688.5986)"><stop
       offset="0"
       style="stop-color:#44C4A1"
       id="stop35" /><stop
       offset="1"
       style="stop-color:#44C4A1"
       id="stop37" /></linearGradient><path
     style="fill:url(#SVGID_3_)"
     d="m 432.489,240.94098 -177.694,0 3.012,18.673 117.459,117.459 c 0,0 57.223,-47.586 57.223,-136.132 z"
     id="path39"
     inkscape:connector-curvature="0" /><circle
     style="fill:#e56353"
     cx="298.05237"
     cy="354.70673"
     id="circle30"
     r="21.684999" /><circle
     style="fill:#fcd462"
     cx="240.6718"
     cy="241.01735"
     id="circle28"
     r="21.684999" /><g
     id="g41"
     transform="translate(0,-1.5733398e-5)" /><g
     id="g43"
     transform="translate(0,-1.5733398e-5)" /><g
     id="g45"
     transform="translate(0,-1.5733398e-5)" /><g
     id="g47"
     transform="translate(0,-1.5733398e-5)" /><g
     id="g49"
     transform="translate(0,-1.5733398e-5)" /><g
     id="g51"
     transform="translate(0,-1.5733398e-5)" /><g
     id="g53"
     transform="translate(0,-1.5733398e-5)" /><g
     id="g55"
     transform="translate(0,-1.5733398e-5)" /><g
     id="g57"
     transform="translate(0,-1.5733398e-5)" /><g
     id="g59"
     transform="translate(0,-1.5733398e-5)" /><g
     id="g61"
     transform="translate(0,-1.5733398e-5)" /><g
     id="g63"
     transform="translate(0,-1.5733398e-5)" /><g
     id="g65"
     transform="translate(0,-1.5733398e-5)" /><g
     id="g67"
     transform="translate(0,-1.5733398e-5)" /><g
     id="g69"
     transform="translate(0,-1.5733398e-5)" /><g
     transform="matrix(0.18466722,0,0,0.18466722,127.41653,195.9205)"
     id="g4596"><ellipse
       ry="72.96299"
       rx="68.793671"
       cy="245.98949"
       cx="-229.31224"
       id="path4496"
       style="opacity:1;fill:#ffffff;fill-opacity:1;stroke:#ffffff;stroke-width:28.82689476;stroke-miterlimit:4;stroke-dasharray:none;stroke-opacity:1" /><ellipse
       ry="114.65613"
       rx="119.86777"
       cy="104.23285"
       cx="-76.089973"
       id="path4498"
       style="opacity:1;fill:#ffffff;fill-opacity:1;stroke:#ffffff;stroke-width:28.82689476;stroke-miterlimit:4;stroke-dasharray:none;stroke-opacity:1" /><ellipse
       ry="96.936546"
       rx="111.52913"
       cy="222.01595"
       cx="124.03709"
       id="path4500"
       style="opacity:1;fill:#ffffff;fill-opacity:1;stroke:#ffffff;stroke-width:28.82689476;stroke-miterlimit:4;stroke-dasharray:none;stroke-opacity:1" /><rect
       y="195.95772"
       x="-214.71965"
       height="125.0794"
       width="318.95245"
       id="rect4502"
       style="opacity:1;fill:#ffffff;fill-opacity:1;stroke:#ffffff;stroke-width:28.82689476;stroke-miterlimit:4;stroke-dasharray:none;stroke-opacity:1" /></g><g
     id="g4323"
     transform="matrix(0.18466722,0,0,0.18466722,354.81852,146.83055)"><ellipse
       style="opacity:1;fill:#ffffff;fill-opacity:1;stroke:#ffffff;stroke-width:28.82689476;stroke-miterlimit:4;stroke-dasharray:none;stroke-opacity:1"
       id="ellipse4325"
       cx="-229.31224"
       cy="245.98949"
       rx="68.793671"
       ry="72.96299" /><ellipse
       style="opacity:1;fill:#ffffff;fill-opacity:1;stroke:#ffffff;stroke-width:28.82689476;stroke-miterlimit:4;stroke-dasharray:none;stroke-opacity:1"
       id="ellipse4327"
       cx="-76.089973"
       cy="104.23285"
       rx="119.86777"
       ry="114.65613" /><ellipse
       style="opacity:1;fill:#ffffff;fill-opacity:1;stroke:#ffffff;stroke-width:28.82689476;stroke-miterlimit:4;stroke-dasharray:none;stroke-opacity:1"
       id="ellipse4329"
       cx="124.03709"
       cy="222.01595"
       rx="111.52913"
       ry="96.936546" /><rect
       style="opacity:1;fill:#ffffff;fill-opacity:1;stroke:#ffffff;stroke-width:28.82689476;stroke-miterlimit:4;stroke-dasharray:none;stroke-opacity:1"
       id="rect4331"
       width="318.95245"
       height="125.0794"
       x="-214.71965"
       y="195.95772" /></g></svg>